<svg xmlns="http://www.w3.org/2000/svg" viewBox="0 0 380 80" fill="none">
  <defs>
    <linearGradient id="textGrad" x1="0" y1="0" x2="380" y2="0" gradientUnits="userSpaceOnUse">
      <stop offset="0%" stop-color="#1e293b"/>
      <stop offset="100%" stop-color="#334155"/>
    </linearGradient>
    <linearGradient id="accentGrad" x1="0" y1="0" x2="1" y2="0">
      <stop offset="0%" stop-color="#0284c7"/>
      <stop offset="100%" stop-color="#0369a1"/>
    </linearGradient>
    <linearGradient id="underline" x1="0" y1="0" x2="380" y2="0" gradientUnits="userSpaceOnUse">
      <stop offset="0%" stop-color="transparent"/>
      <stop offset="20%" stop-color="#0284c7" stop-opacity="0.35"/>
      <stop offset="80%" stop-color="#0284c7" stop-opacity="0.35"/>
      <stop offset="100%" stop-color="transparent"/>
    </linearGradient>
  </defs>
  <style>
    @keyframes blink { 0%,49% { opacity: 1; } 50%,100% { opacity: 0; } }
    .cursor { animation: blink 1s steps(1) infinite; }
  </style>
  <!-- HyperShell -->
  <path d="M25.26 54L20.08 54L20.08 18.96L25.26 18.96L25.26 33.55L35.54 33.55L35.54 18.96L40.72 18.96L40.72 54L35.54 54L35.54 38.21L25.26 38.21L25.26 54ZM58.43 62.64L53.01 62.64L56.85 52.46L46.96 27.60L52.48 27.60L58.10 42.48Q58.53 43.54 58.91 44.78Q59.30 46.03 59.44 46.99L59.44 46.99Q59.63 46.03 59.99 44.78Q60.35 43.54 60.74 42.48L60.74 42.48L65.97 27.60L71.44 27.60L58.43 62.64ZM82.82 62.64L77.63 62.64L77.63 27.60L82.77 27.60L82.77 32.59Q83.30 30 85.19 28.56Q87.09 27.12 89.97 27.12L89.97 27.12Q93.90 27.12 96.26 29.83Q98.61 32.54 98.61 37.06L98.61 37.06L98.61 44.50Q98.61 49.06 96.26 51.77Q93.90 54.48 89.97 54.48L89.97 54.48Q87.09 54.48 85.17 52.97Q83.25 51.46 82.72 48.82L82.72 48.82L82.67 48.82L82.82 55.10L82.82 62.64ZM88.14 49.97L88.14 49.97Q90.64 49.97 92.03 48.65Q93.42 47.33 93.42 44.40L93.42 44.40L93.42 37.15Q93.42 34.27 92.03 32.95Q90.64 31.63 88.14 31.63L88.14 31.63Q85.65 31.63 84.23 33.14Q82.82 34.66 82.82 37.39L82.82 37.39L82.82 44.16Q82.82 46.94 84.23 48.46Q85.65 49.97 88.14 49.97ZM116.80 54.48L116.80 54.48Q111.95 54.48 109.02 51.65Q106.10 48.82 106.10 43.92L106.10 43.92L106.10 37.68Q106.10 32.78 109.02 29.95Q111.95 27.12 116.80 27.12L116.80 27.12Q120.06 27.12 122.46 28.39Q124.86 29.66 126.18 31.97Q127.50 34.27 127.50 37.34L127.50 37.34L127.50 42.10L111.09 42.10L111.09 44.26Q111.09 47.04 112.62 48.58Q114.16 50.11 116.80 50.11L116.80 50.11Q118.96 50.11 120.40 49.32Q121.84 48.53 122.13 47.14L122.13 47.14L127.26 47.14Q126.74 50.50 123.88 52.49Q121.02 54.48 116.80 54.48ZM111.09 37.34L111.09 37.34L111.09 38.45L122.51 38.45L122.51 37.30Q122.51 34.37 121.02 32.78Q119.54 31.20 116.80 31.20L116.80 31.20Q114.06 31.20 112.58 32.81Q111.09 34.42 111.09 37.34ZM141.38 54L136.19 54L136.19 27.60L141.33 27.60L141.33 32.78L141.33 32.78Q141.71 30.14 143.58 28.63Q145.46 27.12 148.53 27.12L148.53 27.12Q152.61 27.12 154.86 29.66Q157.12 32.21 157.12 36.82L157.12 36.82L157.12 39.17L151.94 39.17L151.94 36.96Q151.94 31.63 146.70 31.63L146.70 31.63Q144.11 31.63 142.74 33.14Q141.38 34.66 141.38 37.54L141.38 37.54L141.38 54ZM174.54 54.48L174.54 54.48Q169.36 54.48 166.24 51.74Q163.12 49.01 163.12 44.26L163.12 44.26L168.21 44.26Q168.21 46.90 169.94 48.41Q171.66 49.92 174.54 49.92L174.54 49.92Q177.38 49.92 179.01 48.38Q180.64 46.85 180.64 44.30L180.64 44.30Q180.64 42.38 179.58 40.94Q178.53 39.50 176.56 38.98L176.56 38.98L171.52 37.63Q167.97 36.67 165.93 34.13Q163.89 31.58 163.89 28.03L163.89 28.03Q163.89 25.15 165.16 23.02Q166.43 20.88 168.78 19.68Q171.14 18.48 174.26 18.48L174.26 18.48Q177.38 18.48 179.75 19.68Q182.13 20.88 183.45 23.02Q184.77 25.15 184.77 27.98L184.77 27.98L179.68 27.98Q179.68 25.73 178.17 24.36Q176.66 22.99 174.26 22.99L174.26 22.99Q171.86 22.99 170.39 24.36Q168.93 25.73 168.93 27.94L168.93 27.94Q168.93 29.71 169.91 30.91Q170.90 32.11 172.67 32.59L172.67 32.59L177.86 33.98Q181.50 34.94 183.62 37.73Q185.73 40.51 185.73 44.30L185.73 44.30Q185.73 47.42 184.34 49.70Q182.94 51.98 180.45 53.23Q177.95 54.48 174.54 54.48ZM198.02 54L192.83 54L192.83 18.96L198.02 18.96L198.02 27.60L197.97 32.64L197.97 32.64Q198.35 30.05 200.20 28.58Q202.05 27.12 205.02 27.12L205.02 27.12Q208.96 27.12 211.31 29.64Q213.66 32.16 213.66 36.43L213.66 36.43L213.66 54L208.48 54L208.48 37.15Q208.48 34.46 207.09 33Q205.70 31.54 203.30 31.54L203.30 31.54Q200.85 31.54 199.43 33.07Q198.02 34.61 198.02 37.34L198.02 37.34L198.02 54ZM232.00 54.48L232.00 54.48Q227.15 54.48 224.22 51.65Q221.30 48.82 221.30 43.92L221.30 43.92L221.30 37.68Q221.30 32.78 224.22 29.95Q227.15 27.12 232.00 27.12L232.00 27.12Q235.26 27.12 237.66 28.39Q240.06 29.66 241.38 31.97Q242.70 34.27 242.70 37.34L242.70 37.34L242.70 42.10L226.29 42.10L226.29 44.26Q226.29 47.04 227.82 48.58Q229.36 50.11 232.00 50.11L232.00 50.11Q234.16 50.11 235.60 49.32Q237.04 48.53 237.33 47.14L237.33 47.14L242.46 47.14Q241.94 50.50 239.08 52.49Q236.22 54.48 232.00 54.48ZM226.29 37.34L226.29 37.34L226.29 38.45L237.71 38.45L237.71 37.30Q237.71 34.37 236.22 32.78Q234.74 31.20 232.00 31.20L232.00 31.20Q229.26 31.20 227.78 32.81Q226.29 34.42 226.29 37.34ZM273.04 54L264.88 54Q261.14 54 258.90 51.82Q256.67 49.63 256.67 45.98L256.67 45.98L256.67 23.66L247.79 23.66L247.79 18.96L261.86 18.96L261.86 45.89Q261.86 47.47 262.72 48.38Q263.58 49.30 265.07 49.30L265.07 49.30L273.04 49.30L273.04 54ZM301.84 54L293.68 54Q289.94 54 287.70 51.82Q285.47 49.63 285.47 45.98L285.47 45.98L285.47 23.66L276.59 23.66L276.59 18.96L290.66 18.96L290.66 45.89Q290.66 47.47 291.52 48.38Q292.38 49.30 293.87 49.30L293.87 49.30L301.84 49.30L301.84 54Z" fill="url(#textGrad)"/>
  <!-- >_ -->
  <path d="M328.96 40.90L307.89 51.12L307.89 46.22L322.24 39.36Q323.20 38.93 324.06 38.64Q324.93 38.35 325.36 38.26L325.36 38.26Q324.88 38.11 323.99 37.82Q323.10 37.54 322.24 37.10L322.24 37.10L307.89 30.24L307.89 25.25L328.96 35.47L328.96 40.90ZM358.72 59.71L335.68 59.71L335.68 55.20L358.72 55.20L358.72 59.71Z" fill="url(#accentGrad)"/>
  <!-- blinking cursor -->
  <rect class="cursor" x="365" y="16" width="3" height="42" rx="1.5" fill="#0284c7"/>
  <!-- subtle underline -->
  <rect x="16" y="66" width="356" height="1" rx="0.5" fill="url(#underline)"/>
</svg>
